<svg xmlns="http://www.w3.org/2000/svg" width="104" height="29" viewBox="0 0 104 29"><path d="M0 4.765l3.186-.879c.237.373.343.692.474 1.384.922-.905 2.054-1.384 3.292-1.384 1.106 0 2.027.373 2.738 1.118.185.186.264.293.527.665 1.238-1.277 2.343-1.783 3.818-1.783 1.053 0 2.054.32 2.66.852.765.665 1 1.464 1 3.327v9.689h-3.422V8.757c0-1.624-.185-1.943-1.106-1.943-.66 0-1.58.452-2.344 1.145v9.795H7.478V8.89c0-1.704-.237-2.103-1.21-2.103-.66 0-1.555.346-2.318 1.038v9.929H.5V8.25C.5 6.282.368 5.43 0 4.765m21.24-.32l3.475-.665v8.756c0 1.225.08 1.864.29 2.236.184.374.711.638 1.237.638.87 0 1.923-.638 2.186-1.303V4.525l3.37-.718v10.407c0 .904.29 1.836.817 2.476l-2.5 1.437a3.11 3.11 0 0 1-1.054-1.332c-.87.852-2.133 1.305-3.555 1.305-1.896 0-3.529-.905-3.977-2.209-.21-.613-.29-1.331-.29-2.716v-8.73zm13.779.32l3.186-.879c.237.373.343.692.473 1.384.923-.905 2.055-1.384 3.293-1.384 1.106 0 2.027.373 2.738 1.118.185.186.264.293.527.665 1.237-1.277 2.343-1.783 3.818-1.783 1.053 0 2.054.32 2.66.852.764.665 1 1.464 1 3.327v9.689h-3.422V8.757c0-1.624-.185-1.943-1.106-1.943-.659 0-1.581.452-2.345 1.145v9.795h-3.344V8.89c0-1.704-.237-2.103-1.211-2.103-.658 0-1.554.346-2.317 1.038v9.929h-3.45V8.25c0-1.969-.132-2.822-.5-3.486m30.641.266L64.5 7.427c-1.342-.693-2.317-.985-3.316-.985-1.028 0-1.713.531-1.713 1.33 0 .692.448 1.065 1.686 1.384l1.632.426c1.658.427 2.212.931 2.686 1.544.5.638.737 1.41.737 2.316 0 2.821-2.317 4.739-5.766 4.739-1.66 0-3.477-.534-5.451-1.572l1.263-2.608c1.08.665 2.95 1.544 4.477 1.544 1.001 0 1.79-.665 1.79-1.544 0-.931-.658-1.412-2.079-1.677l-1.58-.293c-.896-.16-2.002-.799-2.475-1.384-.475-.586-.765-1.57-.765-2.45 0-2.66 2.081-4.444 5.215-4.444 2.159 0 3.58.665 4.818 1.277m2.759-.346l3.133-.904c.316.559.5 1.144.5 1.703.816-.585.975-.692 1.554-1.012.71-.372 1.632-.585 2.423-.585 1.5 0 2.817.798 3.239 1.97.184.506.263 1.091.263 1.943v9.955h-3.476V8.89c0-1.544-.263-1.996-1.185-1.996-.71 0-1.632.479-2.45 1.224v9.636h-3.527V7.878c0-1.171-.158-2.288-.474-3.194m17.704 4.791h4.082v-.159c0-1.011-.105-1.543-.422-2.05-.341-.532-.842-.798-1.553-.798-1.343 0-2.107 1.064-2.107 2.955v.052zm6.215 4.659l1.37 2.129c-1.554 1.278-3.186 1.89-5.083 1.89-3.87 0-6.372-2.768-6.372-7.053 0-2.45.5-4.073 1.685-5.403 1.106-1.252 2.449-1.838 4.24-1.838 1.553 0 3.028.533 3.897 1.438 1.237 1.278 1.79 3.114 1.79 5.962v.825H86.07v.107c0 2.102 1.028 3.3 2.845 3.3 1.21 0 2.343-.452 3.423-1.357zm11.035-10.036l-.894 2.37h-2.267v6.946c0 1.732.318 2.183 1.53 2.183.315 0 .63-.08 1.264-.265l.446 2.13c-1.027.425-1.949.61-2.87.61-1.79 0-3.239-.797-3.633-1.995-.211-.586-.238-.853-.238-2.103V6.468h-1.342V4.152h1.342c0-1.33 0-2.235.131-3.247L100.422 0a41.036 41.036 0 0 0-.21 4.098h3.16zM9.958 23.556v2.27c.228.302.666.532 1.079.532.299 0 .632-.16.789-.39.159-.239.308-.674.308-1.418 0-.586-.07-.932-.254-1.189-.167-.24-.484-.381-.826-.381-.28 0-.518.079-.789.274-.21.151-.202.16-.307.302zm-.105-3.184c.087.381.114.638.114 1.1v.984c0 .222-.01.435-.018.488.43-.426.79-.594 1.255-.594 1.044 0 1.692.86 1.692 2.243 0 1.42-.692 2.377-1.736 2.377-.457 0-.956-.257-1.202-.585-.027.23-.045.31-.123.479h-.684c.096-.213.13-.506.13-1.1v-4.195c0-.47-.06-.816-.174-1.046l.746-.151zm3.774 2.173l.676-.23.895 2.864c.123.417.263 1.099.263 1.099h.018l.271-.93.86-2.892h.781l-1.5 4.567c-.158.48-.395.995-.693 1.278a1.672 1.672 0 0 1-.72.382l-.202-.471c.184-.036.457-.213.615-.399.15-.187.28-.498.394-.958l-.28.044a17.48 17.48 0 0 0-.44-1.587l-.938-2.767zm8.533 3.281c.324.372.701.576 1.07.576.404 0 .772-.222.92-.55.132-.283.186-.62.186-1.116 0-.533-.071-1.012-.203-1.27-.14-.3-.456-.486-.807-.486-.438 0-.834.212-1.167.62v2.226zm-.79-3.37l.711-.124c.026.134.043.32.043.559v.115c.36-.426.808-.648 1.29-.648.448 0 .878.205 1.167.55.325.408.482.95.482 1.74 0 .708-.105 1.116-.351 1.524-.316.515-.78.807-1.35.807-.448 0-.896-.196-1.203-.515v2.111l-.684.134V23.52c0-.487-.035-.85-.106-1.064zm7.346 2.164c-.148-.009-.22-.018-.342-.018-.666 0-1.036.124-1.254.355-.167.177-.246.4-.246.7 0 .523.255.807.755.807.447 0 .86-.274 1.06-.691l.027-1.153zm-2.448-1.694c.579-.39 1.202-.594 1.834-.594.605 0 1.027.24 1.211.692.08.194.097.345.097.753v.222l-.035 1.454c-.01.062-.01.134-.01.205 0 .54.08.736.36.878l-.35.496a.9.9 0 0 1-.597-.647c-.421.425-.764.594-1.264.594-.552 0-.824-.141-1.053-.355-.245-.23-.351-.62-.351-.904 0-1.002.852-1.589 2.317-1.589.105 0 .158 0 .307.01v-.31c0-.39-.018-.55-.141-.692-.14-.16-.316-.24-.587-.24a2.06 2.06 0 0 0-.843.195 1.84 1.84 0 0 0-.553.328l-.342-.496zm4.592-.408l.685-.186c.104.231.148.364.148.656v.062c.316-.451.781-.736 1.228-.736.114 0 .237.044.237.044l-.281.754c-.087-.026-.114-.036-.193-.036-.262 0-.526.116-.729.32-.201.205-.254.338-.254.7v2.768h-.684v-3.37c0-.506-.035-.691-.158-.976m3.477 1.73h2c-.009-.48-.07-.772-.202-.985-.149-.24-.456-.39-.79-.39-.623 0-.973.46-1.008 1.375m2.36 1.72l.263.444a2.173 2.173 0 0 1-1.475.549c-1.21 0-1.938-.887-1.938-2.35 0-.744.15-1.232.527-1.668.35-.417.78-.62 1.306-.62.475 0 .895.168 1.185.487.378.392.482.807.5 1.863v.098h-2.728v.105c0 .417.052.738.201.968.246.381.65.541 1.088.541.421 0 .764-.133 1.07-.416m1.53-3.442l.666-.185c.114.247.159.433.159.69.455-.46.911-.682 1.376-.682.474 0 .896.256 1.071.646.07.16.105.338.105.516v3.352h-.692v-2.99c0-.47-.027-.594-.159-.735-.097-.116-.28-.186-.482-.186-.351 0-.895.284-1.211.62v3.29h-.667v-3.29c0-.612-.017-.709-.166-1.046m6.855-.089l-.21.542h-.922v2.838c0 .487.131.655.561.655a.9.9 0 0 0 .439-.088l.096.443a1.594 1.594 0 0 1-.772.178 1.28 1.28 0 0 1-.569-.123c-.308-.151-.422-.436-.422-.88V22.98h-.57v-.542h.57v-.053c0-.222.017-.47.062-.922l.008-.115.71-.16s-.087.665-.087 1.25h1.105zm3.66.186l-.254.515c-.386-.186-.711-.32-1.098-.32-.499 0-.824.294-.824.729 0 .158.044.292.123.39.097.123.246.194.508.248l.58.124c.79.177 1.167.576 1.167 1.232 0 .86-.667 1.446-1.65 1.446a3.207 3.207 0 0 1-1.605-.443l.263-.515c.447.275.904.417 1.386.417.536 0 .887-.293.887-.762 0-.4-.22-.622-.72-.728l-.544-.115c-.395-.089-.624-.213-.825-.444a1.161 1.161 0 0 1-.28-.772c0-.798.64-1.357 1.552-1.357.457 0 .966.143 1.334.355m6.637-1.436c-.166-.098-.412-.204-.648-.204-.388 0-.599.274-.599.78v.719h1.212l-.21.523H54.13v3.858h-.718v-3.858h-.422v-.523h.422v-.727c0-.658.298-.94.482-1.083.211-.158.447-.23.772-.23.378 0 .711.088.966.258l-.255.487zm2.186 1.73c-.385 0-.736.194-.895.477-.14.276-.21.63-.21 1.155 0 .62.104 1.17.272 1.444.157.266.51.445.886.445.456 0 .798-.24.947-.666.097-.274.132-.523.132-.958 0-.621-.062-1.038-.201-1.33-.185-.39-.571-.567-.931-.567m.01-.568c.727 0 1.201.337 1.5.771.271.4.403.922.403 1.64 0 .861-.202 1.402-.684 1.828-.343.301-.703.426-1.194.426-1.166 0-1.886-.897-1.886-2.35 0-1.437.71-2.315 1.86-2.315m3.17.168l.684-.186c.105.231.149.364.149.656v.062c.316-.451.78-.736 1.228-.736.114 0 .238.044.238.044l-.281.754c-.087-.026-.114-.036-.194-.036-.263 0-.526.116-.728.32-.202.205-.253.338-.253.7v2.768h-.686v-3.37c0-.506-.034-.691-.157-.976m6.82 3.308c.325.372.703.576 1.07.576.405 0 .773-.222.922-.55.132-.283.185-.62.185-1.116 0-.533-.07-1.012-.202-1.27a.877.877 0 0 0-.808-.486c-.438 0-.833.212-1.167.62v2.226zm-.79-3.37l.712-.124c.026.134.043.32.043.559v.115c.36-.426.808-.648 1.29-.648.448 0 .878.205 1.167.55.325.408.483.95.483 1.74 0 .708-.106 1.116-.351 1.524-.316.515-.78.807-1.351.807a1.7 1.7 0 0 1-1.203-.515v2.111l-.683.134V23.52c0-.487-.036-.85-.106-1.064zm7.347 2.164c-.15-.009-.219-.018-.343-.018-.666 0-1.034.124-1.253.355-.168.177-.247.4-.247.7 0 .523.255.807.755.807.448 0 .86-.274 1.062-.691l.026-1.153zm-2.447-1.694c.578-.39 1.201-.594 1.833-.594.606 0 1.026.24 1.211.692.08.194.097.345.097.753v.222l-.036 1.454c-.008.062-.008.134-.008.205 0 .54.078.736.36.878l-.352.496a.901.901 0 0 1-.596-.647c-.422.425-.764.594-1.264.594-.553 0-.825-.141-1.052-.355-.246-.23-.352-.62-.352-.904 0-1.002.851-1.589 2.317-1.589.105 0 .157 0 .307.01v-.31c0-.39-.018-.55-.14-.692-.141-.16-.316-.24-.589-.24-.254 0-.518.054-.842.195-.263.107-.35.17-.553.328l-.341-.496zm4.591-.408l.685-.186c.104.231.148.364.148.656v.062c.316-.451.782-.736 1.229-.736.114 0 .236.044.236.044l-.28.754c-.088-.026-.114-.036-.194-.036-.263 0-.526.116-.728.32-.202.205-.254.338-.254.7v2.768h-.684v-3.37c0-.506-.036-.691-.158-.976m3.476 1.73h2c-.009-.48-.07-.772-.202-.985-.15-.24-.456-.39-.789-.39-.623 0-.974.46-1.01 1.375m2.36 1.72l.264.444a2.17 2.17 0 0 1-1.474.549c-1.21 0-1.938-.887-1.938-2.35 0-.744.148-1.232.525-1.668.352-.417.781-.62 1.308-.62.474 0 .895.168 1.185.487.377.392.482.807.5 1.863v.098h-2.73v.105c0 .417.054.738.203.968.245.381.649.541 1.088.541.421 0 .763-.133 1.07-.416m1.529-3.442l.666-.185c.114.247.159.433.159.69.456-.46.912-.682 1.377-.682.474 0 .895.256 1.07.646.071.16.105.338.105.516v3.352h-.692v-2.99c0-.47-.027-.594-.158-.735-.097-.116-.281-.186-.483-.186-.351 0-.895.284-1.211.62v3.29h-.666v-3.29c0-.612-.018-.709-.167-1.046m6.855-.089l-.21.542h-.92v2.838c0 .487.13.655.56.655a.9.9 0 0 0 .439-.088l.096.443a1.594 1.594 0 0 1-.772.178c-.229 0-.403-.045-.57-.123-.307-.151-.421-.436-.421-.88V22.98h-.57v-.542h.57v-.053c0-.222.017-.47.062-.922l.007-.115.711-.16s-.087.665-.087 1.25h1.105zm3.66.186l-.253.515c-.387-.186-.712-.32-1.098-.32-.5 0-.824.294-.824.729a.61.61 0 0 0 .122.39c.096.123.246.194.509.248l.579.124c.79.177 1.167.576 1.167 1.232 0 .86-.666 1.446-1.65 1.446a3.207 3.207 0 0 1-1.604-.443l.263-.515c.447.275.904.417 1.386.417.535 0 .885-.293.885-.762 0-.4-.219-.622-.719-.728l-.544-.115c-.394-.089-.623-.213-.824-.444a1.161 1.161 0 0 1-.281-.772c0-.798.64-1.357 1.553-1.357.456 0 .966.143 1.333.355" fill="#1976D2" fill-rule="evenodd"/></svg>